<svg width="25" height="24" viewBox="0 0 25 24" fill="none" xmlns="http://www.w3.org/2000/svg">
<g id="tik-tok 1">
<g id="Group">
<g id="Group_2">
<path id="Vector" d="M9.45219 12.4406C7.54906 12.4406 6.01156 13.9781 6.03969 15.8625C6.05844 17.0719 6.72406 18.1219 7.70375 18.7078C7.37094 18.1969 7.17406 17.5922 7.16469 16.9406C7.13656 15.0562 8.67406 13.5187 10.5772 13.5187C10.9522 13.5187 11.3131 13.5797 11.6506 13.6875V9.91404C11.2991 9.86248 10.9381 9.83435 10.5772 9.83435C10.5584 9.83435 10.5444 9.83435 10.5256 9.83435V12.6094C10.1881 12.5015 9.82719 12.4406 9.45219 12.4406Z" fill="#F00044"/>
<path id="Vector_2" d="M17.6788 1.125H17.6507H16.6757C16.9569 2.53594 17.7491 3.76406 18.8553 4.59844C18.1288 3.6375 17.6882 2.4375 17.6788 1.125Z" fill="#F00044"/>
<path id="Vector_3" d="M23.4162 6.86716C23.0459 6.86716 22.6897 6.82966 22.3381 6.76404V9.46873C21.0631 9.46873 19.8256 9.22029 18.6631 8.72341C17.9131 8.40466 17.2147 7.99685 16.5725 7.50466L16.5912 15.8437C16.5819 17.7187 15.8412 19.4765 14.5006 20.8031C13.4084 21.8812 12.0256 22.5703 10.5256 22.7906C10.174 22.8422 9.81311 22.8703 9.45217 22.8703C7.84905 22.8703 6.32092 22.35 5.07874 21.389C5.21936 21.5578 5.36936 21.7219 5.53342 21.8812C6.88342 23.2125 8.67405 23.9484 10.5819 23.9484C10.9428 23.9484 11.3037 23.9203 11.6553 23.8687C13.1553 23.6484 14.5381 22.9594 15.6303 21.8812C16.9709 20.5547 17.7115 18.7969 17.7209 16.9219L17.6506 8.58279C18.2881 9.07498 18.9865 9.48748 19.7412 9.80154C20.9084 10.2937 22.1459 10.5469 23.4162 10.5469" fill="#F00044"/>
</g>
<path id="Vector_4" d="M5.51938 11.9109C6.85532 10.5844 8.63188 9.84841 10.5256 9.83435V8.83591C10.1741 8.78435 9.81313 8.75623 9.45219 8.75623C7.53969 8.75623 5.74438 9.49216 4.39438 10.8328C3.06782 12.15 2.30844 13.95 2.31313 15.8203C2.31313 17.7047 3.05844 19.4718 4.40376 20.8078C4.61938 21.0187 4.83969 21.2156 5.07407 21.3937C4.01469 20.1328 3.43813 18.5578 3.43344 16.8984C3.43813 15.0281 4.19282 13.2281 5.51938 11.9109Z" fill="#08FFF9"/>
<path id="Vector_5" d="M22.3381 6.76401V5.76089H22.3287C21.0256 5.76089 19.8256 5.32964 18.86 4.59839C19.699 5.70464 20.9272 6.49214 22.3381 6.76401Z" fill="#08FFF9"/>
<path id="Vector_6" d="M10.385 20.2594C10.8303 20.2828 11.2569 20.2219 11.6506 20.0953C13.01 19.65 13.9897 18.3844 13.9897 16.8937L13.9944 11.3156V1.125H16.6756C16.6053 0.773438 16.5678 0.417188 16.5631 0.046875H12.8694V10.2328L12.8647 15.8109C12.8647 17.3016 11.885 18.5672 10.5256 19.0125C10.1319 19.1438 9.7053 19.2047 9.25999 19.1766C8.6928 19.1438 8.16311 18.975 7.70374 18.7031C8.2803 19.5938 9.26467 20.1984 10.385 20.2594Z" fill="#08FFF9"/>
<path id="Vector_7" d="M10.5256 22.7906C12.0256 22.5703 13.4084 21.8812 14.5006 20.8031C15.8413 19.4766 16.5819 17.7188 16.5913 15.8438L16.5725 7.50469C17.21 7.99688 17.9084 8.40938 18.6631 8.72344C19.8303 9.21563 21.0678 9.46875 22.3381 9.46875V6.76406C20.9272 6.49219 19.6991 5.70469 18.86 4.59844C17.7538 3.76406 16.9569 2.53594 16.6803 1.125H13.9944V11.3109L13.9897 16.8891C13.9897 18.3797 13.01 19.6453 11.6506 20.0906C11.2569 20.2219 10.8303 20.2828 10.385 20.2547C9.26001 20.1938 8.28032 19.5891 7.70376 18.7031C6.72407 18.1219 6.05844 17.0672 6.03969 15.8578C6.01157 13.9734 7.54907 12.4359 9.45219 12.4359C9.82719 12.4359 10.1881 12.4969 10.5256 12.6047V9.82969C8.63188 9.84375 6.85532 10.5797 5.51938 11.9062C4.19282 13.2234 3.43344 15.0234 3.43813 16.8891C3.43813 18.5484 4.01469 20.1234 5.07876 21.3844C6.32563 22.3453 7.84907 22.8656 9.45219 22.8656C9.81313 22.8703 10.1741 22.8422 10.5256 22.7906Z" fill="black"/>
</g>
</g>
</svg>
